REM DIRINDEX 1\2,1\3,1\4,1\5
REM DIRNAME folder01,folder02,folder03,folder04,folder05
TITLE ""
FILE "1Q_t_1410-1419.mp3" MP3
  TRACK 01 AUDIO
    TITLE "3:cjc004_5136"
    INDEX 01 00:00:00
  TRACK 02 AUDIO
    TITLE "0:"
    INDEX 01 00:01:19
  TRACK 03 AUDIO
    TITLE "4:cjc004_5137"
    INDEX 01 00:01:50
  TRACK 04 AUDIO
    TITLE "0:"
    INDEX 01 00:02:67
  TRACK 05 AUDIO
    TITLE "5:cjc004_5138"
    INDEX 01 00:03:21
  TRACK 06 AUDIO
    TITLE "0:"
    INDEX 01 00:07:64
  TRACK 07 AUDIO
    TITLE "3:cjc004_5139"
    INDEX 01 00:08:38
  TRACK 08 AUDIO
    TITLE "0:"
    INDEX 01 00:09:55
  TRACK 09 AUDIO
    TITLE "4:cjc004_5140"
    INDEX 01 00:10:04
  TRACK 10 AUDIO
    TITLE "0:"
    INDEX 01 00:11:25
  TRACK 11 AUDIO
    TITLE "5:cjc004_5141"
    INDEX 01 00:11:52
  TRACK 12 AUDIO
    TITLE "0:"
    INDEX 01 00:16:00
  TRACK 13 AUDIO
    TITLE "3:cjc004_5142"
    INDEX 01 00:16:57
  TRACK 14 AUDIO
    TITLE "0:"
    INDEX 01 00:17:57
  TRACK 15 AUDIO
    TITLE "4:cjc004_5143"
    INDEX 01 00:18:09
  TRACK 16 AUDIO
    TITLE "0:"
    INDEX 01 00:19:30
  TRACK 17 AUDIO
    TITLE "5:cjc004_5144"
    INDEX 01 00:19:54
  TRACK 18 AUDIO
    TITLE "0:"
    INDEX 01 00:23:63
  TRACK 19 AUDIO
    TITLE "3:cjc004_5145"
    INDEX 01 00:24:43
  TRACK 20 AUDIO
    TITLE "0:"
    INDEX 01 00:25:68
  TRACK 21 AUDIO
    TITLE "4:cjc004_5146"
    INDEX 01 00:26:22
  TRACK 22 AUDIO
    TITLE "0:"
    INDEX 01 00:28:17
  TRACK 23 AUDIO
    TITLE "5:cjc004_5147"
    INDEX 01 00:28:43
  TRACK 24 AUDIO
    TITLE "0:"
    INDEX 01 00:32:31
  TRACK 25 AUDIO
    TITLE "3:cjc004_5148"
    INDEX 01 00:33:11
  TRACK 26 AUDIO
    TITLE "0:"
    INDEX 01 00:34:02
  TRACK 27 AUDIO
    TITLE "4:cjc004_5149"
    INDEX 01 00:34:36
  TRACK 28 AUDIO
    TITLE "0:"
    INDEX 01 00:36:01
  TRACK 29 AUDIO
    TITLE "5:cjc004_5150"
    INDEX 01 00:36:25
  TRACK 30 AUDIO
    TITLE "0:"
    INDEX 01 00:41:49
  TRACK 31 AUDIO
    TITLE "3:cjc004_5151"
    INDEX 01 00:42:29
  TRACK 32 AUDIO
    TITLE "0:"
    INDEX 01 00:43:39
  TRACK 33 AUDIO
    TITLE "4:cjc004_5152"
    INDEX 01 00:43:62
  TRACK 34 AUDIO
    TITLE "0:"
    INDEX 01 00:45:14
  TRACK 35 AUDIO
    TITLE "5:cjc004_5153"
    INDEX 01 00:45:43
  TRACK 36 AUDIO
    TITLE "0:"
    INDEX 01 00:50:11
  TRACK 37 AUDIO
    TITLE "3:cjc004_5154"
    INDEX 01 00:50:62
  TRACK 38 AUDIO
    TITLE "0:"
    INDEX 01 00:51:73
  TRACK 39 AUDIO
    TITLE "4:cjc004_5155"
    INDEX 01 00:52:26
  TRACK 40 AUDIO
    TITLE "0:"
    INDEX 01 00:53:39
  TRACK 41 AUDIO
    TITLE "5:cjc004_5156"
    INDEX 01 00:53:66
  TRACK 42 AUDIO
    TITLE "0:"
    INDEX 01 00:57:29
  TRACK 43 AUDIO
    TITLE "3:cjc004_5157"
    INDEX 01 00:58:07
  TRACK 44 AUDIO
    TITLE "0:"
    INDEX 01 00:59:26
  TRACK 45 AUDIO
    TITLE "4:cjc004_5158"
    INDEX 01 00:59:55
  TRACK 46 AUDIO
    TITLE "0:"
    INDEX 01 01:01:05
  TRACK 47 AUDIO
    TITLE "5:cjc004_5159"
    INDEX 01 01:01:31
  TRACK 48 AUDIO
    TITLE "0:"
    INDEX 01 01:05:26
  TRACK 49 AUDIO
    TITLE "3:cjc004_5160"
    INDEX 01 01:06:04
  TRACK 50 AUDIO
    TITLE "0:"
    INDEX 01 01:07:21
  TRACK 51 AUDIO
    TITLE "4:cjc004_5161"
    INDEX 01 01:07:47
  TRACK 52 AUDIO
    TITLE "0:"
    INDEX 01 01:09:36
  TRACK 53 AUDIO
    TITLE "5:cjc004_5162"
    INDEX 01 01:09:54
  TRACK 54 AUDIO
    TITLE "0:"
    INDEX 01 01:13:38
  TRACK 55 AUDIO
    TITLE "3:cjc004_5163"
    INDEX 01 01:14:14
  TRACK 56 AUDIO
    TITLE "0:"
    INDEX 01 01:15:11
  TRACK 57 AUDIO
    TITLE "4:cjc004_5164"
    INDEX 01 01:15:39
  TRACK 58 AUDIO
    TITLE "0:"
    INDEX 01 01:17:18
  TRACK 59 AUDIO
    TITLE "5:cjc004_5165"
    INDEX 01 01:17:47
  TRACK 60 AUDIO
    TITLE "0:"
    INDEX 01 01:21:20
